#!OML:ASF F:\VICON\USERDATA\INSTALL\rory3\rory3.ASF
:FULLY-SPECIFIED
:DEGREES
36
root -0.11514356043135325 18.59037964254088 5.30795069631744 0.1358749626602188 0.10950629788045874 -5.300418358959838
lfemur -29.30260134311046 5.708696624891822 -14.548313714525353
ltibia 75.3142825991844
lfoot 0.38622730342326106 -0.7365671569278396
ltoes -7.8959423103300965
rfemur -8.319905986122803 7.945519642777437 30.979893468897917
rtibia 25.18675283698719
rfoot -8.883820451800087 -4.806074012743826
rtoes 7.4331938100500645
lowerback 13.182895649987158 1.0501666613094198 4.034767806612527
upperback 0.3002820715794426 2.1766928248657216 2.5886601341857585
thorax -7.51700849572433 0.9839765932955788 0.08151464830000432
lowerneck -17.634835122125594 -2.543262288236014 -2.7158446026207135
upperneck 17.833104102680068 -3.014082866692206 1.3883619136510799
head 8.638255994853452 -1.4134181607684593 0.3949025778382432
lclavicle -2.2661315186769502e-15 6.815995655056777e-16
lhumerus -43.556216195379605 -7.380120227329376 92.19117230336553
lradius 66.79586657320623
lwrist 21.63725577828051
lhand -27.248347042148215 11.996088716605643
lfingers 7.125019999999999
lthumb -0.5357847913458651 41.73113880121923
rclavicle -2.259695104768582e-15 6.861382167117562e-16
rhumerus -34.94358764119693 -0.4232313738316478 -91.69140522504695
rradius 71.17616274146752
rwrist -4.974563865654886
rhand -15.942035452825113 30.957301331164036
rfingers 7.125019999999999
rthumb 9.902208357425913 1.1895955856591487
37
root -0.10865441182303141 18.393324306642445 6.503384826741691 0.5949422101276143 -0.6568796749101136 -5.850389371551452
lfemur -32.294544082309045 5.558317184693667 -14.090553699614187
ltibia 66.3217910106704
lfoot -1.263191627208921 1.7499790273252915
ltoes -7.796860917514683
rfemur -5.713062458297863 8.100679257950315 31.915079121179215
rtibia 24.157184271850188
rfoot -11.03080017433312 -5.103057981859736
rtoes 6.51582730640672
lowerback 13.174448872442722 1.413999872304964 4.952714793943435
upperback 0.2987136012814295 2.8348722394085826 2.5176661653667414
thorax -7.4678778211336665 1.2690811971808418 -0.6728435660016936
lowerneck -17.65391752316117 -2.6008590640061264 -2.7212004417953652
upperneck 17.845593412575237 -3.1028443394386427 1.4355009192003232
head 8.659569348137387 -1.43527189654101 0.3992661636819267
lclavicle -2.265608309380132e-15 6.819717596664374e-16
lhumerus -46.005738379952845 -6.141468478836412 91.88218991852006
lradius 65.35187982018319
lwrist 21.69405277170138
lhand -27.59643591708995 11.473180790464147
lfingers 7.125019999999999
lthumb -0.8794759639782528 41.377458218189204
rclavicle -2.2605696264173768e-15 6.855250947434901e-16
rhumerus -33.64335359786588 1.41493046958065 -92.23797729230203
rradius 72.75248639743764
rwrist -5.640150330842424
rhand -16.025165064516358 31.034700413381103
rfingers 7.125019999999999
rthumb 9.63887442352014 1.2071833835858627
38
root -0.09016818726283139 18.326825253565307 7.458945418583099 1.172707645512434 -1.5085598002419485 -6.011376292332112
lfemur -33.31387527730135 4.1400016361580905 -13.622887196512188
ltibia 52.61973969993447
lfoot -1.5989850080636479 3.4398356371833088
ltoes -7.163519370524067
rfemur -2.904979431335372 8.208273025830097 32.357050967215876
rtibia 22.309720923817025
rfoot -12.190698461517002 -4.9309198191351085
rtoes 5.90113997159901
lowerback 12.879051214995506 1.8012353318895793 5.4302750520098355
upperback 0.24183964619781845 3.3943705668988104 2.4511671546912153
thorax -7.342539727131766 1.5291702845705355 -1.194930187322947
lowerneck -17.829784180621076 -2.594216173623778 -2.6542948261600556
upperneck 17.99982374841844 -3.106441312231289 1.392782950530124
head 8.73989176878176 -1.4198275399577747 0.36155654328895637
lclavicle -2.263631583749397e-15 6.833587530265043e-16
lhumerus -48.11155254518609 -4.702160212439705 91.4720873684819
lradius 63.17358091152079
lwrist 20.972716747798135
lhand -27.577288851240546 11.286137339229933
lfingers 7.125019999999999
lthumb -0.8521688180538729 41.4430568303003
rclavicle -2.261632702490338e-15 6.847798133232131e-16
rhumerus -32.47487431821725 2.3682285484914862 -92.44557033037441
rradius 73.38090367825981
rwrist -5.6689739357536055
rhand -16.291107588717818 31.029399360612217
rfingers 7.125019999999999
rthumb 9.370790074317961 1.3148993391709969
39
root -0.06815050908760763 18.20685062162733 8.320145736618791 1.8427125722131534 -2.306974457179275 -6.4856244401930105
lfemur -32.91657376834714 1.0239189645764832 -12.363071370585457
ltibia 36.976249939678375
lfoot -2.578127228972351 4.48360200918326
ltoes -7.452621603541003
rfemur -0.32205523249396606 7.990962854493724 32.90491893952212
rtibia 21.24515655301449
rfoot -12.849732583994983 -4.757105845254195
rtoes 3.3925145799363374
lowerback 12.368576713101657 2.164494136286148 6.061706928262765
upperback 0.039990824072712594 3.9877892817215916 2.4711829888749413
thorax -7.20826108208604 1.8098633209605386 -1.7176607104222643
lowerneck -17.982560566669733 -2.615468460625098 -2.6118302085348075
upperneck 18.15408843152183 -3.1665459186095006 1.4356833788565884
head 8.795680621369314 -1.4393374493886855 0.36762198926179834
lclavicle -2.2628262096272885e-15 6.839245438445981e-16
lhumerus -50.07028178790781 -2.8296016197838125 90.76038847775551
lradius 60.113879103686244
lwrist 19.772487596568045
lhand -27.09377456783115 11.269233194934175
lfingers 7.125019999999999
lthumb -0.4821443038097443 41.39589460084213
rclavicle -2.2608623159826748e-15 6.853199089309527e-16
rhumerus -31.773209775255864 2.4312109701862124 -92.33102263615223
rradius 73.3079451691139
rwrist -5.540993933689367
rhand -16.579998453996154 31.15765264536556
rfingers 7.125019999999999
rthumb 9.091980073801981 1.777726908884091
40
root -0.028697626028243495 18.086221927049817 9.36466660915262 2.525986359078942 -2.7211797651855276 -6.426606884530184
lfemur -31.101003205188064 -4.11430127844478 -11.12618710695843
ltibia 23.37231202555813
lfoot -3.8994557845454536 5.027666357020895
ltoes -7.6997369656877055
rfemur 1.9146277947015484 7.4324407853709245 32.89104430372917
rtibia 21.557335276994166
rfoot -13.111844248958244 -4.563062555625967
rtoes -0.21167397499746432
lowerback 11.81585739915372 2.4054540719919038 6.247450730096339
upperback -0.22010981014239786 4.300228341738254 2.325476433929122
thorax -7.0622113195700935 1.9931512092799315 -2.0371490427660177
lowerneck -18.238722857765676 -2.632475954937508 -2.536597712800893
upperneck 18.380566945058376 -3.205273477094549 1.421845623000907
head 8.86920512011616 -1.4646284278312596 0.3472918906880778
lclavicle -2.261913329975788e-15 6.845651390585747e-16
lhumerus -51.65375580899099 -1.2313471874806998 90.10225929594544
lradius 57.45274822850861
lwrist 18.45447792394648
lhand -26.652735899109338 11.675768842264482
lfingers 7.125019999999999
lthumb -0.09670018368305006 41.66426601492569
rclavicle -2.2609585789027933e-15 6.852523532659254e-16
rhumerus -31.587410260161512 1.9961202943455323 -92.05179005911829
rradius 72.79932094503589
rwrist -5.137889138383392
rhand -16.785454105286224 31.36055550130139
rfingers 7.125019999999999
rthumb 8.952427347751676 2.174004862816211
41
root 0.019288409883387148 17.897747067652592 10.414618442084896 3.0768598294260925 -2.8997635467413394 -6.572896188036383
lfemur -29.57863588046149 -7.174790346005171 -10.641132423632607
ltibia 17.73569051642345
lfoot -4.977782681475071 4.738781802263535
ltoes -6.606073327831373
rfemur 3.4622212310293605 6.472912563437907 32.90711034080999
rtibia 24.269871131006646
rfoot -12.958575582951717 -4.0893775628340485
rtoes -4.127743122672915
lowerback 11.392073989669298 2.512829262493814 6.407672885634043
upperback -0.47132171628670055 4.467601749125203 2.2314238350741102
thorax -6.997206994115603 2.0644032901375793 -2.308327900394147
lowerneck -18.46463465669449 -2.664942747523073 -2.454206271077199
upperneck 18.49317227673674 -3.253347694362491 1.3943225967215462
head 8.900584033177745 -1.4945273035931859 0.32808145837750663
lclavicle -2.260211192014467e-15 6.857590477712273e-16
lhumerus -52.737083353363055 0.015053862595336476 89.49438329477762
lradius 55.11273146516998
lwrist 16.779318299151758
lhand -26.20280818064198 12.084120840639349
lfingers 7.125019999999999
lthumb 0.4235971565714799 42.106762027411484
rclavicle -2.260175704669843e-15 6.858012515656255e-16
rhumerus -31.805377403144874 1.2195033561403967 -91.74193761048673
rradius 72.04867826343317
rwrist -4.868539562012751
rhand -16.982610231526714 31.499066584825304
rfingers 7.125019999999999
rthumb 8.772647353222965 2.356693376770603
42
root 0.09124625610400003 17.753543849131937 11.611248401953175 2.7021887640523854 -2.265801958456115 -6.250587507319409
lfemur -29.764402680711374 -5.263547523612963 -12.579129897274479
ltibia 22.588962739083552
lfoot -4.294913848729199 1.4784280405019445
ltoes -5.0897517279914055
rfemur 3.778350183193222 4.652310567946916 32.215839236701456
rtibia 29.48796014080968
rfoot -11.95707678598907 -3.1588113999654395
rtoes -7.585283928351666
lowerback 11.29566345002623 2.3738145961486614 6.07348848579088
upperback -0.536585032043733 4.306098369383886 2.0261064062015963
thorax -7.007172499115721 1.9864572871013615 -2.3888480725100703
lowerneck -18.463145170827868 -2.7365487236219703 -2.4449602639293415
upperneck 18.624306816760516 -3.3570799064600982 1.3517675640829596
head 8.921996471030674 -1.5676169285944246 0.3034067391928098
lclavicle -2.2597450957546486e-15 6.860879542933104e-16
lhumerus -53.57379158039032 1.429282385198941 88.62689688557205
lradius 53.57040836066173
lwrist 15.189314402034519
lhand -25.69317756909719 12.65122692014527
lfingers 7.125019999999999
lthumb 0.9261961260901428 42.681067440518454
rclavicle -2.2602239960550777e-15 6.857673826242865e-16
rhumerus -32.6735349180865 0.10286228135545095 -91.24092924408791
rradius 71.2492776431986
rwrist -4.277153283003164
rhand -17.086017016300204 31.567021788012458
rfingers 7.125019999999999
rthumb 8.638896882788432 2.3818768835495896
43
root 0.17955552733161956 17.690571836924633 12.653854297317165 1.9285573398931328 -2.8133229686831474 -5.640482199863846
lfemur -29.723405817857653 -3.0655665153129057 -14.825480196763209
ltibia 30.203231993517925
lfoot -3.1035841498203482 -1.5338644301213016
ltoes -3.3736643512640803
rfemur 2.123118779416018 3.7263805007267434 30.946781489632137
rtibia 36.76280443755165
rfoot -8.333676721489006 -0.7037779036955394
rtoes -8.811216113736242
lowerback 11.476093604333723 2.6064250259396986 5.29791412851655
upperback -0.6238309983390284 4.522705568667012 1.7299898176705613
thorax -7.166182424652775 2.0856760825875913 -2.2284070543969463
lowerneck -18.33106782520178 -2.8208451060790747 -2.4989376326851525
upperneck 18.74985570285814 -3.4880444052427677 1.343025415313273
head 8.944390323785363 -1.6362104104276705 0.29679953834505796
lclavicle -2.257502064209907e-15 6.87664548357046e-16
lhumerus -53.95742655889654 2.7381433782721567 87.6870014635758
lradius 52.9622735929115
lwrist 13.653657251654508
lhand -24.85649467434038 13.456422990613419
lfingers 7.125019999999999
lthumb 1.7037144348155329 43.55967550936963
rclavicle -2.2602497767284467e-15 6.857492479623923e-16
rhumerus -34.09693733532211 -1.2853613978940146 -90.55595964490436
rradius 70.44540991722393
rwrist -3.803957497891511
rhand -17.20369838159601 31.561558900064185
rfingers 7.125019999999999
rthumb 8.461356998710736 2.1601367333129824
